<mxfile host="Electron" modified="2024-04-11T00:38:28.068Z" agent="Mozilla/5.0 (Windows NT 10.0; Win64; x64) AppleWebKit/537.36 (KHTML, like Gecko) draw.io/24.1.0 Chrome/120.0.6099.109 Electron/28.1.0 Safari/537.36" etag="l3R25uGCyWTdWuSLyDh4" version="24.1.0" type="device">
  <diagram id="VXuQ1Augw0Guq6mfTbnl" name="Page-1">
    <mxGraphModel dx="2647" dy="1853" grid="1" gridSize="10" guides="1" tooltips="1" connect="1" arrows="1" fold="1" page="1" pageScale="1" pageWidth="2336" pageHeight="1654" math="0" shadow="0">
      <root>
        <mxCell id="0" />
        <mxCell id="1" parent="0" />
        <mxCell id="uVgYWtlCzEDaqMZw6L-K-1" value="" style="ellipse;html=1;shape=startState;fillColor=#000000;strokeColor=#ff0000;" parent="1" vertex="1">
          <mxGeometry x="464.40999999999997" y="60" width="30" height="30" as="geometry" />
        </mxCell>
        <mxCell id="uVgYWtlCzEDaqMZw6L-K-2" value="" style="edgeStyle=orthogonalEdgeStyle;html=1;verticalAlign=bottom;endArrow=open;endSize=8;strokeColor=#ff0000;rounded=0;" parent="1" source="uVgYWtlCzEDaqMZw6L-K-1" edge="1">
          <mxGeometry relative="1" as="geometry">
            <mxPoint x="479.40999999999997" y="150" as="targetPoint" />
          </mxGeometry>
        </mxCell>
        <mxCell id="rtrRGqQpTpoYwjqOUDVs-1" value="Access Start Page" style="rounded=1;whiteSpace=wrap;html=1;arcSize=40;fontColor=#000000;fillColor=#ffffc0;strokeColor=#ff0000;" parent="1" vertex="1">
          <mxGeometry x="419.40999999999997" y="150" width="120" height="40" as="geometry" />
        </mxCell>
        <mxCell id="rtrRGqQpTpoYwjqOUDVs-2" value="" style="edgeStyle=orthogonalEdgeStyle;html=1;verticalAlign=bottom;endArrow=open;endSize=8;strokeColor=#ff0000;rounded=0;entryX=0.5;entryY=0;entryDx=0;entryDy=0;" parent="1" source="rtrRGqQpTpoYwjqOUDVs-1" target="rtrRGqQpTpoYwjqOUDVs-3" edge="1">
          <mxGeometry relative="1" as="geometry">
            <mxPoint x="280.59000000000003" y="230" as="targetPoint" />
          </mxGeometry>
        </mxCell>
        <mxCell id="rtrRGqQpTpoYwjqOUDVs-3" value="Valid Account" style="rhombus;whiteSpace=wrap;html=1;fontColor=#000000;fillColor=#ffffc0;strokeColor=#ff0000;" parent="1" vertex="1">
          <mxGeometry x="439.4100000000001" y="240" width="81.18" height="70" as="geometry" />
        </mxCell>
        <mxCell id="rtrRGqQpTpoYwjqOUDVs-4" value="no" style="edgeStyle=orthogonalEdgeStyle;html=1;align=left;verticalAlign=bottom;endArrow=open;endSize=8;strokeColor=#ff0000;rounded=0;entryX=1;entryY=0.5;entryDx=0;entryDy=0;" parent="1" source="rtrRGqQpTpoYwjqOUDVs-3" target="rtrRGqQpTpoYwjqOUDVs-7" edge="1">
          <mxGeometry x="0.0872" y="15" relative="1" as="geometry">
            <mxPoint x="360.59000000000003" y="305" as="targetPoint" />
            <mxPoint as="offset" />
          </mxGeometry>
        </mxCell>
        <mxCell id="rtrRGqQpTpoYwjqOUDVs-5" value="yes" style="edgeStyle=orthogonalEdgeStyle;html=1;align=left;verticalAlign=top;endArrow=open;endSize=8;strokeColor=#ff0000;rounded=0;entryX=0.5;entryY=0;entryDx=0;entryDy=0;" parent="1" source="rtrRGqQpTpoYwjqOUDVs-3" target="rtrRGqQpTpoYwjqOUDVs-11" edge="1">
          <mxGeometry x="-1" relative="1" as="geometry">
            <mxPoint x="478.82000000000005" y="410" as="targetPoint" />
          </mxGeometry>
        </mxCell>
        <mxCell id="rtrRGqQpTpoYwjqOUDVs-7" value="Create Account" style="rounded=1;whiteSpace=wrap;html=1;arcSize=40;fontColor=#000000;fillColor=#ffffc0;strokeColor=#ff0000;" parent="1" vertex="1">
          <mxGeometry x="230.58999999999995" y="255" width="120" height="40" as="geometry" />
        </mxCell>
        <mxCell id="rtrRGqQpTpoYwjqOUDVs-10" value="" style="edgeStyle=orthogonalEdgeStyle;html=1;verticalAlign=bottom;endArrow=open;endSize=8;strokeColor=#ff0000;rounded=0;exitX=0.5;exitY=0;exitDx=0;exitDy=0;entryX=0;entryY=0.5;entryDx=0;entryDy=0;" parent="1" source="rtrRGqQpTpoYwjqOUDVs-7" target="rtrRGqQpTpoYwjqOUDVs-1" edge="1">
          <mxGeometry relative="1" as="geometry">
            <mxPoint x="350.59000000000003" y="420" as="targetPoint" />
            <mxPoint x="350.59000000000003" y="350" as="sourcePoint" />
          </mxGeometry>
        </mxCell>
        <mxCell id="rtrRGqQpTpoYwjqOUDVs-11" value="Log In" style="rounded=1;whiteSpace=wrap;html=1;arcSize=40;fontColor=#000000;fillColor=#ffffc0;strokeColor=#ff0000;" parent="1" vertex="1">
          <mxGeometry x="420" y="400" width="120" height="40" as="geometry" />
        </mxCell>
        <mxCell id="rtrRGqQpTpoYwjqOUDVs-12" value="Valid&lt;div&gt;Password&lt;/div&gt;" style="rhombus;whiteSpace=wrap;html=1;fontColor=#000000;fillColor=#ffffc0;strokeColor=#ff0000;" parent="1" vertex="1">
          <mxGeometry x="439.4100000000001" y="490" width="81.18" height="70" as="geometry" />
        </mxCell>
        <mxCell id="rtrRGqQpTpoYwjqOUDVs-13" value="no" style="edgeStyle=orthogonalEdgeStyle;html=1;align=left;verticalAlign=bottom;endArrow=open;endSize=8;strokeColor=#ff0000;rounded=0;entryX=0;entryY=0.5;entryDx=0;entryDy=0;exitX=0;exitY=0.5;exitDx=0;exitDy=0;" parent="1" source="rtrRGqQpTpoYwjqOUDVs-12" target="rtrRGqQpTpoYwjqOUDVs-11" edge="1">
          <mxGeometry x="0.0872" y="15" relative="1" as="geometry">
            <mxPoint x="350.59000000000003" y="535" as="targetPoint" />
            <mxPoint as="offset" />
            <Array as="points">
              <mxPoint x="340.59000000000003" y="525" />
              <mxPoint x="340.59000000000003" y="420" />
            </Array>
          </mxGeometry>
        </mxCell>
        <mxCell id="rtrRGqQpTpoYwjqOUDVs-14" value="yes" style="edgeStyle=orthogonalEdgeStyle;html=1;align=left;verticalAlign=top;endArrow=open;endSize=8;strokeColor=#ff0000;rounded=0;entryX=0.5;entryY=0;entryDx=0;entryDy=0;" parent="1" source="rtrRGqQpTpoYwjqOUDVs-12" target="rtrRGqQpTpoYwjqOUDVs-17" edge="1">
          <mxGeometry x="-1" relative="1" as="geometry">
            <mxPoint x="479.59000000000003" y="670" as="targetPoint" />
          </mxGeometry>
        </mxCell>
        <mxCell id="rtrRGqQpTpoYwjqOUDVs-16" value="" style="edgeStyle=orthogonalEdgeStyle;html=1;align=left;verticalAlign=top;endArrow=open;endSize=8;strokeColor=#ff0000;rounded=0;entryX=0.5;entryY=0;entryDx=0;entryDy=0;exitX=0.5;exitY=1;exitDx=0;exitDy=0;" parent="1" source="rtrRGqQpTpoYwjqOUDVs-11" target="rtrRGqQpTpoYwjqOUDVs-12" edge="1">
          <mxGeometry x="-1" relative="1" as="geometry">
            <mxPoint x="560.59" y="650" as="targetPoint" />
            <mxPoint x="560.59" y="540" as="sourcePoint" />
          </mxGeometry>
        </mxCell>
        <mxCell id="rtrRGqQpTpoYwjqOUDVs-17" value="Access Home Page" style="rounded=1;whiteSpace=wrap;html=1;arcSize=40;fontColor=#000000;fillColor=#ffffc0;strokeColor=#ff0000;" parent="1" vertex="1">
          <mxGeometry x="420" y="630" width="120" height="40" as="geometry" />
        </mxCell>
        <mxCell id="rtrRGqQpTpoYwjqOUDVs-19" value="" style="edgeStyle=orthogonalEdgeStyle;html=1;align=left;verticalAlign=top;endArrow=open;endSize=8;strokeColor=#ff0000;rounded=0;exitX=0.5;exitY=1;exitDx=0;exitDy=0;entryX=0.499;entryY=0.159;entryDx=0;entryDy=0;entryPerimeter=0;" parent="1" source="rtrRGqQpTpoYwjqOUDVs-17" target="rtrRGqQpTpoYwjqOUDVs-21" edge="1">
          <mxGeometry x="-1" relative="1" as="geometry">
            <mxPoint x="550.59" y="720" as="targetPoint" />
            <mxPoint x="510.59000000000003" y="680" as="sourcePoint" />
          </mxGeometry>
        </mxCell>
        <mxCell id="rtrRGqQpTpoYwjqOUDVs-20" value="Play Game" style="rounded=1;whiteSpace=wrap;html=1;arcSize=40;fontColor=#000000;fillColor=#ffffc0;strokeColor=#ff0000;" parent="1" vertex="1">
          <mxGeometry x="900" y="840" width="120" height="40" as="geometry" />
        </mxCell>
        <mxCell id="rtrRGqQpTpoYwjqOUDVs-22" value="" style="edgeStyle=orthogonalEdgeStyle;html=1;verticalAlign=bottom;endArrow=open;endSize=8;strokeColor=#ff0000;rounded=0;entryX=0.5;entryY=0;entryDx=0;entryDy=0;exitX=0.927;exitY=0.529;exitDx=0;exitDy=0;exitPerimeter=0;" parent="1" target="rtrRGqQpTpoYwjqOUDVs-20" edge="1">
          <mxGeometry relative="1" as="geometry">
            <mxPoint x="960.5900000000001" y="877.8000000000001" as="targetPoint" />
            <mxPoint x="959.9200000000001" y="745.29" as="sourcePoint" />
          </mxGeometry>
        </mxCell>
        <mxCell id="rtrRGqQpTpoYwjqOUDVs-23" value="Access Settings" style="rounded=1;whiteSpace=wrap;html=1;arcSize=40;fontColor=#000000;fillColor=#ffffc0;strokeColor=#ff0000;" parent="1" vertex="1">
          <mxGeometry x="139.99999999999994" y="813" width="120" height="40" as="geometry" />
        </mxCell>
        <mxCell id="rtrRGqQpTpoYwjqOUDVs-25" value="Access Leaderboard" style="rounded=1;whiteSpace=wrap;html=1;arcSize=40;fontColor=#000000;fillColor=#ffffc0;strokeColor=#ff0000;" parent="1" vertex="1">
          <mxGeometry x="290" y="811.82" width="120" height="40" as="geometry" />
        </mxCell>
        <mxCell id="rtrRGqQpTpoYwjqOUDVs-26" value="" style="edgeStyle=orthogonalEdgeStyle;html=1;verticalAlign=bottom;endArrow=open;endSize=8;strokeColor=#ff0000;rounded=0;entryX=0.5;entryY=0;entryDx=0;entryDy=0;exitX=0.464;exitY=0.654;exitDx=0;exitDy=0;exitPerimeter=0;" parent="1" target="rtrRGqQpTpoYwjqOUDVs-25" edge="1">
          <mxGeometry relative="1" as="geometry">
            <mxPoint x="400.03999999999996" y="847.3199999999999" as="targetPoint" />
            <mxPoint x="350.4399999999998" y="746.54" as="sourcePoint" />
            <Array as="points">
              <mxPoint x="350" y="788" />
            </Array>
          </mxGeometry>
        </mxCell>
        <mxCell id="rtrRGqQpTpoYwjqOUDVs-27" value="Customize Character" style="rounded=1;whiteSpace=wrap;html=1;arcSize=40;fontColor=#000000;fillColor=#ffffc0;strokeColor=#ff0000;" parent="1" vertex="1">
          <mxGeometry x="440.00000000000006" y="811.82" width="120" height="40" as="geometry" />
        </mxCell>
        <mxCell id="rtrRGqQpTpoYwjqOUDVs-29" style="edgeStyle=orthogonalEdgeStyle;rounded=0;orthogonalLoop=1;jettySize=auto;html=1;exitX=0.5;exitY=1;exitDx=0;exitDy=0;" parent="1" source="rtrRGqQpTpoYwjqOUDVs-25" target="rtrRGqQpTpoYwjqOUDVs-25" edge="1">
          <mxGeometry relative="1" as="geometry" />
        </mxCell>
        <mxCell id="rtrRGqQpTpoYwjqOUDVs-21" value="" style="shape=line;html=1;strokeWidth=6;strokeColor=#ff0000;" parent="1" vertex="1">
          <mxGeometry x="140" y="740" width="960" height="10" as="geometry" />
        </mxCell>
        <mxCell id="rtrRGqQpTpoYwjqOUDVs-32" value="" style="edgeStyle=orthogonalEdgeStyle;html=1;verticalAlign=bottom;endArrow=open;endSize=8;strokeColor=#ff0000;rounded=0;entryX=0.5;entryY=0;entryDx=0;entryDy=0;exitX=0.5;exitY=1;exitDx=0;exitDy=0;" parent="1" source="rtrRGqQpTpoYwjqOUDVs-20" edge="1">
          <mxGeometry relative="1" as="geometry">
            <mxPoint x="960" y="906.8200000000002" as="targetPoint" />
            <mxPoint x="968.25" y="906.49" as="sourcePoint" />
          </mxGeometry>
        </mxCell>
        <mxCell id="rtrRGqQpTpoYwjqOUDVs-34" value="" style="edgeStyle=orthogonalEdgeStyle;html=1;verticalAlign=bottom;endArrow=open;endSize=8;strokeColor=#ff0000;rounded=0;entryX=0;entryY=0.5;entryDx=0;entryDy=0;exitX=0;exitY=0.5;exitDx=0;exitDy=0;" parent="1" source="0AmZF3lFyV2eBW2hPW2H-61" target="rtrRGqQpTpoYwjqOUDVs-17" edge="1">
          <mxGeometry relative="1" as="geometry">
            <mxPoint x="349.36999999999966" y="1252.2800000000002" as="targetPoint" />
            <mxPoint x="358.07000000000005" y="920" as="sourcePoint" />
            <Array as="points">
              <mxPoint x="20" y="1180" />
              <mxPoint x="20" y="650" />
            </Array>
          </mxGeometry>
        </mxCell>
        <mxCell id="fUx_yHsOXqdxV9NH5imY-1" value="Player" style="text;align=center;fontStyle=1;verticalAlign=middle;spacingLeft=3;spacingRight=3;strokeColor=none;rotatable=0;points=[[0,0.5],[1,0.5]];portConstraint=eastwest;html=1;fontSize=22;" parent="1" vertex="1">
          <mxGeometry x="100" y="30" width="80" height="26" as="geometry" />
        </mxCell>
        <mxCell id="fUx_yHsOXqdxV9NH5imY-2" value="" style="ellipse;html=1;shape=startState;fillColor=#000000;strokeColor=#ff0000;" parent="1" vertex="1">
          <mxGeometry x="1720.4099999999999" y="60" width="30" height="30" as="geometry" />
        </mxCell>
        <mxCell id="fUx_yHsOXqdxV9NH5imY-3" value="" style="edgeStyle=orthogonalEdgeStyle;html=1;verticalAlign=bottom;endArrow=open;endSize=8;strokeColor=#ff0000;rounded=0;" parent="1" source="fUx_yHsOXqdxV9NH5imY-2" edge="1">
          <mxGeometry relative="1" as="geometry">
            <mxPoint x="1735.4099999999999" y="150" as="targetPoint" />
          </mxGeometry>
        </mxCell>
        <mxCell id="fUx_yHsOXqdxV9NH5imY-4" value="Access Start Page" style="rounded=1;whiteSpace=wrap;html=1;arcSize=40;fontColor=#000000;fillColor=#ffffc0;strokeColor=#ff0000;" parent="1" vertex="1">
          <mxGeometry x="1675.4099999999999" y="150" width="120" height="40" as="geometry" />
        </mxCell>
        <mxCell id="fUx_yHsOXqdxV9NH5imY-5" value="" style="edgeStyle=orthogonalEdgeStyle;html=1;verticalAlign=bottom;endArrow=open;endSize=8;strokeColor=#ff0000;rounded=0;entryX=0.5;entryY=0;entryDx=0;entryDy=0;" parent="1" source="fUx_yHsOXqdxV9NH5imY-4" target="fUx_yHsOXqdxV9NH5imY-6" edge="1">
          <mxGeometry relative="1" as="geometry">
            <mxPoint x="1536.5900000000001" y="230" as="targetPoint" />
          </mxGeometry>
        </mxCell>
        <mxCell id="fUx_yHsOXqdxV9NH5imY-6" value="Valid Account" style="rhombus;whiteSpace=wrap;html=1;fontColor=#000000;fillColor=#ffffc0;strokeColor=#ff0000;" parent="1" vertex="1">
          <mxGeometry x="1695.41" y="240" width="81.18" height="70" as="geometry" />
        </mxCell>
        <mxCell id="fUx_yHsOXqdxV9NH5imY-7" value="no" style="edgeStyle=orthogonalEdgeStyle;html=1;align=left;verticalAlign=bottom;endArrow=open;endSize=8;strokeColor=#ff0000;rounded=0;entryX=0;entryY=0.5;entryDx=0;entryDy=0;exitX=0;exitY=0.5;exitDx=0;exitDy=0;" parent="1" source="fUx_yHsOXqdxV9NH5imY-6" target="fUx_yHsOXqdxV9NH5imY-4" edge="1">
          <mxGeometry x="0.0881" relative="1" as="geometry">
            <mxPoint x="1606.59" y="275" as="targetPoint" />
            <mxPoint as="offset" />
            <Array as="points">
              <mxPoint x="1596" y="275" />
              <mxPoint x="1596" y="170" />
            </Array>
          </mxGeometry>
        </mxCell>
        <mxCell id="fUx_yHsOXqdxV9NH5imY-8" value="yes" style="edgeStyle=orthogonalEdgeStyle;html=1;align=left;verticalAlign=top;endArrow=open;endSize=8;strokeColor=#ff0000;rounded=0;entryX=0.5;entryY=0;entryDx=0;entryDy=0;" parent="1" source="fUx_yHsOXqdxV9NH5imY-6" target="fUx_yHsOXqdxV9NH5imY-11" edge="1">
          <mxGeometry x="-1" relative="1" as="geometry">
            <mxPoint x="1734.8200000000002" y="410" as="targetPoint" />
          </mxGeometry>
        </mxCell>
        <mxCell id="fUx_yHsOXqdxV9NH5imY-11" value="Log In" style="rounded=1;whiteSpace=wrap;html=1;arcSize=40;fontColor=#000000;fillColor=#ffffc0;strokeColor=#ff0000;" parent="1" vertex="1">
          <mxGeometry x="1676" y="400" width="120" height="40" as="geometry" />
        </mxCell>
        <mxCell id="fUx_yHsOXqdxV9NH5imY-12" value="Valid&lt;div&gt;Password&lt;/div&gt;" style="rhombus;whiteSpace=wrap;html=1;fontColor=#000000;fillColor=#ffffc0;strokeColor=#ff0000;" parent="1" vertex="1">
          <mxGeometry x="1695.41" y="490" width="81.18" height="70" as="geometry" />
        </mxCell>
        <mxCell id="fUx_yHsOXqdxV9NH5imY-13" value="no" style="edgeStyle=orthogonalEdgeStyle;html=1;align=left;verticalAlign=bottom;endArrow=open;endSize=8;strokeColor=#ff0000;rounded=0;entryX=0;entryY=0.5;entryDx=0;entryDy=0;exitX=0;exitY=0.5;exitDx=0;exitDy=0;" parent="1" source="fUx_yHsOXqdxV9NH5imY-12" target="fUx_yHsOXqdxV9NH5imY-11" edge="1">
          <mxGeometry x="0.0872" y="15" relative="1" as="geometry">
            <mxPoint x="1606.5900000000001" y="535" as="targetPoint" />
            <mxPoint as="offset" />
            <Array as="points">
              <mxPoint x="1596.5900000000001" y="525" />
              <mxPoint x="1596.5900000000001" y="420" />
            </Array>
          </mxGeometry>
        </mxCell>
        <mxCell id="fUx_yHsOXqdxV9NH5imY-14" value="yes" style="edgeStyle=orthogonalEdgeStyle;html=1;align=left;verticalAlign=top;endArrow=open;endSize=8;strokeColor=#ff0000;rounded=0;entryX=0.5;entryY=0;entryDx=0;entryDy=0;" parent="1" source="fUx_yHsOXqdxV9NH5imY-12" edge="1">
          <mxGeometry x="-1" relative="1" as="geometry">
            <mxPoint x="1736" y="630" as="targetPoint" />
          </mxGeometry>
        </mxCell>
        <mxCell id="fUx_yHsOXqdxV9NH5imY-15" value="" style="edgeStyle=orthogonalEdgeStyle;html=1;align=left;verticalAlign=top;endArrow=open;endSize=8;strokeColor=#ff0000;rounded=0;entryX=0.5;entryY=0;entryDx=0;entryDy=0;exitX=0.5;exitY=1;exitDx=0;exitDy=0;" parent="1" source="fUx_yHsOXqdxV9NH5imY-11" target="fUx_yHsOXqdxV9NH5imY-12" edge="1">
          <mxGeometry x="-1" relative="1" as="geometry">
            <mxPoint x="1816.5900000000001" y="650" as="targetPoint" />
            <mxPoint x="1816.5900000000001" y="540" as="sourcePoint" />
          </mxGeometry>
        </mxCell>
        <mxCell id="fUx_yHsOXqdxV9NH5imY-35" value="Admin" style="text;align=center;fontStyle=1;verticalAlign=middle;spacingLeft=3;spacingRight=3;strokeColor=none;rotatable=0;points=[[0,0.5],[1,0.5]];portConstraint=eastwest;html=1;fontSize=22;" parent="1" vertex="1">
          <mxGeometry x="1356" y="30" width="80" height="26" as="geometry" />
        </mxCell>
        <mxCell id="0AmZF3lFyV2eBW2hPW2H-7" value="Quit" style="rounded=1;whiteSpace=wrap;html=1;arcSize=40;fontColor=#000000;fillColor=#ffffc0;strokeColor=#ff0000;" vertex="1" parent="1">
          <mxGeometry x="594.41" y="811.82" width="120" height="40" as="geometry" />
        </mxCell>
        <mxCell id="0AmZF3lFyV2eBW2hPW2H-9" value="" style="ellipse;html=1;shape=endState;fillColor=#000000;strokeColor=#ff0000;" vertex="1" parent="1">
          <mxGeometry x="639.41" y="940" width="30" height="30" as="geometry" />
        </mxCell>
        <mxCell id="0AmZF3lFyV2eBW2hPW2H-10" value="" style="edgeStyle=orthogonalEdgeStyle;html=1;verticalAlign=bottom;endArrow=open;endSize=8;strokeColor=#ff0000;rounded=0;exitX=0.5;exitY=1;exitDx=0;exitDy=0;entryX=0.5;entryY=0;entryDx=0;entryDy=0;" edge="1" parent="1" source="0AmZF3lFyV2eBW2hPW2H-7" target="0AmZF3lFyV2eBW2hPW2H-9">
          <mxGeometry relative="1" as="geometry">
            <mxPoint x="594.41" y="1295" as="targetPoint" />
            <mxPoint x="594.41" y="910" as="sourcePoint" />
            <Array as="points">
              <mxPoint x="654.41" y="900" />
              <mxPoint x="654.41" y="900" />
            </Array>
          </mxGeometry>
        </mxCell>
        <mxCell id="0AmZF3lFyV2eBW2hPW2H-19" value="" style="edgeStyle=orthogonalEdgeStyle;html=1;verticalAlign=bottom;endArrow=open;endSize=8;strokeColor=#ff0000;rounded=0;entryX=0.5;entryY=0;entryDx=0;entryDy=0;exitX=0.063;exitY=0.737;exitDx=0;exitDy=0;exitPerimeter=0;" edge="1" parent="1" source="rtrRGqQpTpoYwjqOUDVs-21" target="rtrRGqQpTpoYwjqOUDVs-23">
          <mxGeometry relative="1" as="geometry">
            <mxPoint x="46" y="860" as="targetPoint" />
            <mxPoint x="180.4000000000001" y="740.0000000000002" as="sourcePoint" />
          </mxGeometry>
        </mxCell>
        <mxCell id="0AmZF3lFyV2eBW2hPW2H-21" value="Change Settings" style="rounded=1;whiteSpace=wrap;html=1;arcSize=40;fontColor=#000000;fillColor=#ffffc0;strokeColor=#ff0000;" vertex="1" parent="1">
          <mxGeometry x="139.99999999999994" y="908" width="120" height="40" as="geometry" />
        </mxCell>
        <mxCell id="0AmZF3lFyV2eBW2hPW2H-22" value="" style="edgeStyle=orthogonalEdgeStyle;html=1;verticalAlign=bottom;endArrow=open;endSize=8;strokeColor=#ff0000;rounded=0;entryX=0.5;entryY=0;entryDx=0;entryDy=0;exitX=0.497;exitY=0.968;exitDx=0;exitDy=0;exitPerimeter=0;" edge="1" parent="1" source="rtrRGqQpTpoYwjqOUDVs-23" target="0AmZF3lFyV2eBW2hPW2H-21">
          <mxGeometry relative="1" as="geometry">
            <mxPoint x="222.15999999999997" y="931.72" as="targetPoint" />
            <mxPoint x="219.9999999999999" y="863" as="sourcePoint" />
            <Array as="points">
              <mxPoint x="200" y="863" />
              <mxPoint x="200" y="863" />
            </Array>
          </mxGeometry>
        </mxCell>
        <mxCell id="0AmZF3lFyV2eBW2hPW2H-24" value="" style="edgeStyle=orthogonalEdgeStyle;html=1;verticalAlign=bottom;endArrow=open;endSize=8;strokeColor=#ff0000;rounded=0;entryX=0.5;entryY=0;entryDx=0;entryDy=0;exitX=0.5;exitY=1;exitDx=0;exitDy=0;" edge="1" parent="1" source="0AmZF3lFyV2eBW2hPW2H-21" target="0AmZF3lFyV2eBW2hPW2H-30">
          <mxGeometry relative="1" as="geometry">
            <mxPoint x="200" y="1003" as="targetPoint" />
            <mxPoint x="240" y="972" as="sourcePoint" />
            <Array as="points" />
          </mxGeometry>
        </mxCell>
        <mxCell id="0AmZF3lFyV2eBW2hPW2H-30" value="Confirm&lt;div&gt;Settings&lt;/div&gt;" style="rhombus;whiteSpace=wrap;html=1;fontColor=#000000;fillColor=#ffffc0;strokeColor=#ff0000;" vertex="1" parent="1">
          <mxGeometry x="159.41000000000005" y="1003" width="81.18" height="70" as="geometry" />
        </mxCell>
        <mxCell id="0AmZF3lFyV2eBW2hPW2H-33" value="" style="edgeStyle=orthogonalEdgeStyle;html=1;verticalAlign=bottom;endArrow=open;endSize=8;strokeColor=#ff0000;rounded=0;entryX=0;entryY=0.5;entryDx=0;entryDy=0;exitX=0;exitY=0.5;exitDx=0;exitDy=0;" edge="1" parent="1" source="0AmZF3lFyV2eBW2hPW2H-30" target="0AmZF3lFyV2eBW2hPW2H-21">
          <mxGeometry relative="1" as="geometry">
            <mxPoint x="210" y="1013" as="targetPoint" />
            <mxPoint x="210" y="958" as="sourcePoint" />
            <Array as="points">
              <mxPoint x="90" y="1038" />
              <mxPoint x="90" y="928" />
            </Array>
          </mxGeometry>
        </mxCell>
        <mxCell id="0AmZF3lFyV2eBW2hPW2H-34" value="Settings Not OK" style="edgeLabel;html=1;align=center;verticalAlign=middle;resizable=0;points=[];" vertex="1" connectable="0" parent="0AmZF3lFyV2eBW2hPW2H-33">
          <mxGeometry x="-0.2248" relative="1" as="geometry">
            <mxPoint x="10" y="-25" as="offset" />
          </mxGeometry>
        </mxCell>
        <mxCell id="0AmZF3lFyV2eBW2hPW2H-38" value="" style="edgeStyle=orthogonalEdgeStyle;html=1;verticalAlign=bottom;endArrow=open;endSize=8;strokeColor=#ff0000;rounded=0;entryX=0.5;entryY=0;entryDx=0;entryDy=0;exitX=0.464;exitY=0.654;exitDx=0;exitDy=0;exitPerimeter=0;" edge="1" parent="1" target="0AmZF3lFyV2eBW2hPW2H-7">
          <mxGeometry relative="1" as="geometry">
            <mxPoint x="654.18" y="808.82" as="targetPoint" />
            <mxPoint x="654.6199999999998" y="743.36" as="sourcePoint" />
            <Array as="points">
              <mxPoint x="655" y="780" />
              <mxPoint x="654" y="780" />
            </Array>
          </mxGeometry>
        </mxCell>
        <mxCell id="0AmZF3lFyV2eBW2hPW2H-39" value="Pause the game" style="rounded=1;whiteSpace=wrap;html=1;arcSize=40;fontColor=#000000;fillColor=#ffffc0;strokeColor=#ff0000;" vertex="1" parent="1">
          <mxGeometry x="730" y="1003" width="120" height="40" as="geometry" />
        </mxCell>
        <mxCell id="0AmZF3lFyV2eBW2hPW2H-43" value="" style="shape=line;html=1;strokeWidth=6;strokeColor=#ff0000;" vertex="1" parent="1">
          <mxGeometry x="780" y="908" width="360" height="10" as="geometry" />
        </mxCell>
        <mxCell id="0AmZF3lFyV2eBW2hPW2H-44" value="" style="edgeStyle=orthogonalEdgeStyle;html=1;verticalAlign=bottom;endArrow=open;endSize=8;strokeColor=#ff0000;rounded=0;entryX=0.5;entryY=0;entryDx=0;entryDy=0;exitX=0.25;exitY=0.5;exitDx=0;exitDy=0;exitPerimeter=0;" edge="1" source="0AmZF3lFyV2eBW2hPW2H-43" parent="1" target="0AmZF3lFyV2eBW2hPW2H-39">
          <mxGeometry relative="1" as="geometry">
            <mxPoint x="880" y="988" as="targetPoint" />
          </mxGeometry>
        </mxCell>
        <mxCell id="0AmZF3lFyV2eBW2hPW2H-47" value="Finish the Level" style="rounded=1;whiteSpace=wrap;html=1;arcSize=40;fontColor=#000000;fillColor=#ffffc0;strokeColor=#ff0000;" vertex="1" parent="1">
          <mxGeometry x="900" y="1000" width="120" height="40" as="geometry" />
        </mxCell>
        <mxCell id="0AmZF3lFyV2eBW2hPW2H-48" value="Return to Home Page" style="rounded=1;whiteSpace=wrap;html=1;arcSize=40;fontColor=#000000;fillColor=#ffffc0;strokeColor=#ff0000;" vertex="1" parent="1">
          <mxGeometry x="1060" y="1000" width="120" height="40" as="geometry" />
        </mxCell>
        <mxCell id="0AmZF3lFyV2eBW2hPW2H-49" value="" style="edgeStyle=orthogonalEdgeStyle;html=1;verticalAlign=bottom;endArrow=open;endSize=8;strokeColor=#ff0000;rounded=0;entryX=0.5;entryY=0;entryDx=0;entryDy=0;exitX=0.5;exitY=0.813;exitDx=0;exitDy=0;exitPerimeter=0;" edge="1" parent="1" source="0AmZF3lFyV2eBW2hPW2H-43" target="0AmZF3lFyV2eBW2hPW2H-47">
          <mxGeometry relative="1" as="geometry">
            <mxPoint x="800" y="1000" as="targetPoint" />
            <mxPoint x="880" y="923" as="sourcePoint" />
          </mxGeometry>
        </mxCell>
        <mxCell id="0AmZF3lFyV2eBW2hPW2H-50" value="" style="edgeStyle=orthogonalEdgeStyle;html=1;verticalAlign=bottom;endArrow=open;endSize=8;strokeColor=#ff0000;rounded=0;exitX=0.75;exitY=0.5;exitDx=0;exitDy=0;exitPerimeter=0;" edge="1" parent="1" source="0AmZF3lFyV2eBW2hPW2H-43" target="0AmZF3lFyV2eBW2hPW2H-48">
          <mxGeometry relative="1" as="geometry">
            <mxPoint x="970" y="1000" as="targetPoint" />
            <mxPoint x="971" y="923" as="sourcePoint" />
          </mxGeometry>
        </mxCell>
        <mxCell id="0AmZF3lFyV2eBW2hPW2H-51" value="" style="edgeStyle=orthogonalEdgeStyle;html=1;verticalAlign=bottom;endArrow=open;endSize=8;strokeColor=#ff0000;rounded=0;entryX=0.5;entryY=0;entryDx=0;entryDy=0;exitX=0.375;exitY=0.231;exitDx=0;exitDy=0;exitPerimeter=0;" edge="1" parent="1" source="rtrRGqQpTpoYwjqOUDVs-21" target="rtrRGqQpTpoYwjqOUDVs-27">
          <mxGeometry relative="1" as="geometry">
            <mxPoint x="499.69" y="808.64" as="targetPoint" />
            <mxPoint x="500" y="750" as="sourcePoint" />
            <Array as="points" />
          </mxGeometry>
        </mxCell>
        <mxCell id="0AmZF3lFyV2eBW2hPW2H-52" value="" style="edgeStyle=orthogonalEdgeStyle;html=1;verticalAlign=bottom;endArrow=open;endSize=8;strokeColor=#ff0000;rounded=0;entryX=0;entryY=0.5;entryDx=0;entryDy=0;exitX=0;exitY=0.5;exitDx=0;exitDy=0;" edge="1" parent="1" source="0AmZF3lFyV2eBW2hPW2H-42" target="rtrRGqQpTpoYwjqOUDVs-20">
          <mxGeometry relative="1" as="geometry">
            <mxPoint x="789.64" y="1144" as="targetPoint" />
            <mxPoint x="789.64" y="1060" as="sourcePoint" />
            <Array as="points">
              <mxPoint x="710" y="1135" />
              <mxPoint x="710" y="860" />
            </Array>
          </mxGeometry>
        </mxCell>
        <mxCell id="0AmZF3lFyV2eBW2hPW2H-55" value="Yes" style="edgeLabel;html=1;align=center;verticalAlign=middle;resizable=0;points=[];" vertex="1" connectable="0" parent="0AmZF3lFyV2eBW2hPW2H-52">
          <mxGeometry x="-0.5175" y="3" relative="1" as="geometry">
            <mxPoint y="-1" as="offset" />
          </mxGeometry>
        </mxCell>
        <mxCell id="0AmZF3lFyV2eBW2hPW2H-53" value="" style="edgeStyle=orthogonalEdgeStyle;html=1;verticalAlign=bottom;endArrow=open;endSize=8;strokeColor=#ff0000;rounded=0;entryX=0.5;entryY=0;entryDx=0;entryDy=0;exitX=0.5;exitY=1;exitDx=0;exitDy=0;" edge="1" parent="1" source="0AmZF3lFyV2eBW2hPW2H-39" target="0AmZF3lFyV2eBW2hPW2H-42">
          <mxGeometry relative="1" as="geometry">
            <mxPoint x="790" y="1253" as="targetPoint" />
            <mxPoint x="790" y="1043" as="sourcePoint" />
          </mxGeometry>
        </mxCell>
        <mxCell id="0AmZF3lFyV2eBW2hPW2H-42" value="Continue the game" style="rhombus;whiteSpace=wrap;html=1;fontColor=#000000;fillColor=#ffffc0;strokeColor=#ff0000;" vertex="1" parent="1">
          <mxGeometry x="739.7099999999999" y="1090" width="100.59" height="90" as="geometry" />
        </mxCell>
        <mxCell id="0AmZF3lFyV2eBW2hPW2H-54" value="" style="edgeStyle=orthogonalEdgeStyle;html=1;verticalAlign=bottom;endArrow=open;endSize=8;strokeColor=#ff0000;rounded=0;entryX=0.5;entryY=1;entryDx=0;entryDy=0;exitX=1;exitY=0.5;exitDx=0;exitDy=0;" edge="1" parent="1" source="0AmZF3lFyV2eBW2hPW2H-42" target="0AmZF3lFyV2eBW2hPW2H-48">
          <mxGeometry relative="1" as="geometry">
            <mxPoint x="700" y="1077" as="targetPoint" />
            <mxPoint x="700" y="1030" as="sourcePoint" />
          </mxGeometry>
        </mxCell>
        <mxCell id="0AmZF3lFyV2eBW2hPW2H-56" value="No" style="edgeLabel;html=1;align=center;verticalAlign=middle;resizable=0;points=[];" vertex="1" connectable="0" parent="0AmZF3lFyV2eBW2hPW2H-54">
          <mxGeometry x="0.3631" y="1" relative="1" as="geometry">
            <mxPoint as="offset" />
          </mxGeometry>
        </mxCell>
        <mxCell id="0AmZF3lFyV2eBW2hPW2H-57" value="" style="edgeStyle=orthogonalEdgeStyle;html=1;verticalAlign=bottom;endArrow=open;endSize=8;strokeColor=#ff0000;rounded=0;entryX=0;entryY=0.5;entryDx=0;entryDy=0;exitX=1;exitY=0.5;exitDx=0;exitDy=0;" edge="1" parent="1" source="0AmZF3lFyV2eBW2hPW2H-47" target="0AmZF3lFyV2eBW2hPW2H-48">
          <mxGeometry relative="1" as="geometry">
            <mxPoint x="1030" y="1134" as="targetPoint" />
            <mxPoint x="1030" y="1050" as="sourcePoint" />
          </mxGeometry>
        </mxCell>
        <mxCell id="0AmZF3lFyV2eBW2hPW2H-58" value="" style="edgeStyle=orthogonalEdgeStyle;html=1;verticalAlign=bottom;endArrow=open;endSize=8;strokeColor=#ff0000;rounded=0;exitX=1;exitY=0.5;exitDx=0;exitDy=0;entryX=1;entryY=0.5;entryDx=0;entryDy=0;" edge="1" parent="1" source="0AmZF3lFyV2eBW2hPW2H-48" target="rtrRGqQpTpoYwjqOUDVs-17">
          <mxGeometry relative="1" as="geometry">
            <mxPoint x="1203" y="940" as="targetPoint" />
            <mxPoint x="1133" y="853" as="sourcePoint" />
            <Array as="points">
              <mxPoint x="1200" y="1020" />
              <mxPoint x="1200" y="650" />
            </Array>
          </mxGeometry>
        </mxCell>
        <mxCell id="0AmZF3lFyV2eBW2hPW2H-61" value="Return to Home Page" style="rounded=1;whiteSpace=wrap;html=1;arcSize=40;fontColor=#000000;fillColor=#ffffc0;strokeColor=#ff0000;" vertex="1" parent="1">
          <mxGeometry x="290" y="1160" width="120" height="40" as="geometry" />
        </mxCell>
        <mxCell id="0AmZF3lFyV2eBW2hPW2H-63" value="Access Home Page" style="rounded=1;whiteSpace=wrap;html=1;arcSize=40;fontColor=#000000;fillColor=#ffffc0;strokeColor=#ff0000;" vertex="1" parent="1">
          <mxGeometry x="1670" y="630" width="120" height="40" as="geometry" />
        </mxCell>
        <mxCell id="0AmZF3lFyV2eBW2hPW2H-64" value="" style="edgeStyle=orthogonalEdgeStyle;html=1;align=left;verticalAlign=top;endArrow=open;endSize=8;strokeColor=#ff0000;rounded=0;exitX=0.5;exitY=1;exitDx=0;exitDy=0;entryX=0.499;entryY=0.159;entryDx=0;entryDy=0;entryPerimeter=0;" edge="1" parent="1" source="0AmZF3lFyV2eBW2hPW2H-63" target="0AmZF3lFyV2eBW2hPW2H-72">
          <mxGeometry x="-1" relative="1" as="geometry">
            <mxPoint x="1800.5900000000001" y="720" as="targetPoint" />
            <mxPoint x="1760.5900000000001" y="680" as="sourcePoint" />
          </mxGeometry>
        </mxCell>
        <mxCell id="0AmZF3lFyV2eBW2hPW2H-65" value="Play Game" style="rounded=1;whiteSpace=wrap;html=1;arcSize=40;fontColor=#000000;fillColor=#ffffc0;strokeColor=#ff0000;" vertex="1" parent="1">
          <mxGeometry x="2520" y="840" width="120" height="40" as="geometry" />
        </mxCell>
        <mxCell id="0AmZF3lFyV2eBW2hPW2H-66" value="" style="edgeStyle=orthogonalEdgeStyle;html=1;verticalAlign=bottom;endArrow=open;endSize=8;strokeColor=#ff0000;rounded=0;entryX=0.5;entryY=0;entryDx=0;entryDy=0;exitX=0.927;exitY=0.529;exitDx=0;exitDy=0;exitPerimeter=0;" edge="1" parent="1" target="0AmZF3lFyV2eBW2hPW2H-65">
          <mxGeometry relative="1" as="geometry">
            <mxPoint x="2580.59" y="877.8000000000001" as="targetPoint" />
            <mxPoint x="2579.92" y="745.29" as="sourcePoint" />
          </mxGeometry>
        </mxCell>
        <mxCell id="0AmZF3lFyV2eBW2hPW2H-67" value="Access Settings" style="rounded=1;whiteSpace=wrap;html=1;arcSize=40;fontColor=#000000;fillColor=#ffffc0;strokeColor=#ff0000;" vertex="1" parent="1">
          <mxGeometry x="1390" y="813" width="120" height="40" as="geometry" />
        </mxCell>
        <mxCell id="0AmZF3lFyV2eBW2hPW2H-68" value="Access Leaderboard" style="rounded=1;whiteSpace=wrap;html=1;arcSize=40;fontColor=#000000;fillColor=#ffffc0;strokeColor=#ff0000;" vertex="1" parent="1">
          <mxGeometry x="1540" y="811.82" width="120" height="40" as="geometry" />
        </mxCell>
        <mxCell id="0AmZF3lFyV2eBW2hPW2H-69" value="" style="edgeStyle=orthogonalEdgeStyle;html=1;verticalAlign=bottom;endArrow=open;endSize=8;strokeColor=#ff0000;rounded=0;entryX=0.5;entryY=0;entryDx=0;entryDy=0;exitX=0.464;exitY=0.654;exitDx=0;exitDy=0;exitPerimeter=0;" edge="1" parent="1" target="0AmZF3lFyV2eBW2hPW2H-68">
          <mxGeometry relative="1" as="geometry">
            <mxPoint x="1650.04" y="847.3199999999999" as="targetPoint" />
            <mxPoint x="1600.4399999999998" y="746.54" as="sourcePoint" />
            <Array as="points">
              <mxPoint x="1600" y="788" />
            </Array>
          </mxGeometry>
        </mxCell>
        <mxCell id="0AmZF3lFyV2eBW2hPW2H-70" value="Customize Character" style="rounded=1;whiteSpace=wrap;html=1;arcSize=40;fontColor=#000000;fillColor=#ffffc0;strokeColor=#ff0000;" vertex="1" parent="1">
          <mxGeometry x="1690" y="811.82" width="120" height="40" as="geometry" />
        </mxCell>
        <mxCell id="0AmZF3lFyV2eBW2hPW2H-71" style="edgeStyle=orthogonalEdgeStyle;rounded=0;orthogonalLoop=1;jettySize=auto;html=1;exitX=0.5;exitY=1;exitDx=0;exitDy=0;" edge="1" parent="1" source="0AmZF3lFyV2eBW2hPW2H-68" target="0AmZF3lFyV2eBW2hPW2H-68">
          <mxGeometry relative="1" as="geometry" />
        </mxCell>
        <mxCell id="0AmZF3lFyV2eBW2hPW2H-72" value="" style="shape=line;html=1;strokeWidth=6;strokeColor=#ff0000;" vertex="1" parent="1">
          <mxGeometry x="1390" y="740" width="1360" height="10" as="geometry" />
        </mxCell>
        <mxCell id="0AmZF3lFyV2eBW2hPW2H-73" value="" style="edgeStyle=orthogonalEdgeStyle;html=1;verticalAlign=bottom;endArrow=open;endSize=8;strokeColor=#ff0000;rounded=0;entryX=0.5;entryY=0;entryDx=0;entryDy=0;exitX=0.5;exitY=1;exitDx=0;exitDy=0;" edge="1" parent="1" source="0AmZF3lFyV2eBW2hPW2H-65">
          <mxGeometry relative="1" as="geometry">
            <mxPoint x="2580" y="906.8200000000002" as="targetPoint" />
            <mxPoint x="2588.25" y="906.49" as="sourcePoint" />
          </mxGeometry>
        </mxCell>
        <mxCell id="0AmZF3lFyV2eBW2hPW2H-74" value="" style="edgeStyle=orthogonalEdgeStyle;html=1;verticalAlign=bottom;endArrow=open;endSize=8;strokeColor=#ff0000;rounded=0;entryX=0;entryY=0.5;entryDx=0;entryDy=0;exitX=0;exitY=0.5;exitDx=0;exitDy=0;" edge="1" parent="1" source="0AmZF3lFyV2eBW2hPW2H-106" target="0AmZF3lFyV2eBW2hPW2H-63">
          <mxGeometry relative="1" as="geometry">
            <mxPoint x="1599.3699999999997" y="1252.2800000000002" as="targetPoint" />
            <mxPoint x="1608.0700000000002" y="920" as="sourcePoint" />
            <Array as="points">
              <mxPoint x="1270" y="1190" />
              <mxPoint x="1270" y="650" />
            </Array>
          </mxGeometry>
        </mxCell>
        <mxCell id="0AmZF3lFyV2eBW2hPW2H-75" value="Quit" style="rounded=1;whiteSpace=wrap;html=1;arcSize=40;fontColor=#000000;fillColor=#ffffc0;strokeColor=#ff0000;" vertex="1" parent="1">
          <mxGeometry x="1844.4099999999999" y="811.82" width="120" height="40" as="geometry" />
        </mxCell>
        <mxCell id="0AmZF3lFyV2eBW2hPW2H-76" value="" style="ellipse;html=1;shape=endState;fillColor=#000000;strokeColor=#ff0000;" vertex="1" parent="1">
          <mxGeometry x="1889.4099999999999" y="940" width="30" height="30" as="geometry" />
        </mxCell>
        <mxCell id="0AmZF3lFyV2eBW2hPW2H-77" value="" style="edgeStyle=orthogonalEdgeStyle;html=1;verticalAlign=bottom;endArrow=open;endSize=8;strokeColor=#ff0000;rounded=0;exitX=0.5;exitY=1;exitDx=0;exitDy=0;entryX=0.5;entryY=0;entryDx=0;entryDy=0;" edge="1" parent="1" source="0AmZF3lFyV2eBW2hPW2H-75" target="0AmZF3lFyV2eBW2hPW2H-76">
          <mxGeometry relative="1" as="geometry">
            <mxPoint x="1844.4099999999999" y="1295" as="targetPoint" />
            <mxPoint x="1844.4099999999999" y="910" as="sourcePoint" />
            <Array as="points">
              <mxPoint x="1904.4099999999999" y="900" />
              <mxPoint x="1904.4099999999999" y="900" />
            </Array>
          </mxGeometry>
        </mxCell>
        <mxCell id="0AmZF3lFyV2eBW2hPW2H-78" value="" style="edgeStyle=orthogonalEdgeStyle;html=1;verticalAlign=bottom;endArrow=open;endSize=8;strokeColor=#ff0000;rounded=0;entryX=0.5;entryY=0;entryDx=0;entryDy=0;exitX=0.044;exitY=0.571;exitDx=0;exitDy=0;exitPerimeter=0;" edge="1" parent="1" source="0AmZF3lFyV2eBW2hPW2H-72" target="0AmZF3lFyV2eBW2hPW2H-67">
          <mxGeometry relative="1" as="geometry">
            <mxPoint x="1296" y="860" as="targetPoint" />
            <mxPoint x="1430.4" y="740.0000000000002" as="sourcePoint" />
          </mxGeometry>
        </mxCell>
        <mxCell id="0AmZF3lFyV2eBW2hPW2H-81" value="Change Settings" style="rounded=1;whiteSpace=wrap;html=1;arcSize=40;fontColor=#000000;fillColor=#ffffc0;strokeColor=#ff0000;" vertex="1" parent="1">
          <mxGeometry x="1390" y="908" width="120" height="40" as="geometry" />
        </mxCell>
        <mxCell id="0AmZF3lFyV2eBW2hPW2H-82" value="" style="edgeStyle=orthogonalEdgeStyle;html=1;verticalAlign=bottom;endArrow=open;endSize=8;strokeColor=#ff0000;rounded=0;entryX=0.5;entryY=0;entryDx=0;entryDy=0;exitX=0.497;exitY=0.968;exitDx=0;exitDy=0;exitPerimeter=0;" edge="1" parent="1" source="0AmZF3lFyV2eBW2hPW2H-67" target="0AmZF3lFyV2eBW2hPW2H-81">
          <mxGeometry relative="1" as="geometry">
            <mxPoint x="1472.1599999999999" y="931.72" as="targetPoint" />
            <mxPoint x="1470" y="863" as="sourcePoint" />
            <Array as="points">
              <mxPoint x="1450" y="863" />
              <mxPoint x="1450" y="863" />
            </Array>
          </mxGeometry>
        </mxCell>
        <mxCell id="0AmZF3lFyV2eBW2hPW2H-83" value="" style="edgeStyle=orthogonalEdgeStyle;html=1;verticalAlign=bottom;endArrow=open;endSize=8;strokeColor=#ff0000;rounded=0;entryX=0.5;entryY=0;entryDx=0;entryDy=0;exitX=0.5;exitY=1;exitDx=0;exitDy=0;" edge="1" parent="1" source="0AmZF3lFyV2eBW2hPW2H-81" target="0AmZF3lFyV2eBW2hPW2H-84">
          <mxGeometry relative="1" as="geometry">
            <mxPoint x="1450" y="1003" as="targetPoint" />
            <mxPoint x="1490" y="972" as="sourcePoint" />
            <Array as="points" />
          </mxGeometry>
        </mxCell>
        <mxCell id="0AmZF3lFyV2eBW2hPW2H-84" value="Confirm&lt;div&gt;Settings&lt;/div&gt;" style="rhombus;whiteSpace=wrap;html=1;fontColor=#000000;fillColor=#ffffc0;strokeColor=#ff0000;" vertex="1" parent="1">
          <mxGeometry x="1409.41" y="1003" width="81.18" height="70" as="geometry" />
        </mxCell>
        <mxCell id="0AmZF3lFyV2eBW2hPW2H-85" value="" style="edgeStyle=orthogonalEdgeStyle;html=1;verticalAlign=bottom;endArrow=open;endSize=8;strokeColor=#ff0000;rounded=0;entryX=0;entryY=0.5;entryDx=0;entryDy=0;exitX=0;exitY=0.5;exitDx=0;exitDy=0;" edge="1" parent="1" source="0AmZF3lFyV2eBW2hPW2H-84" target="0AmZF3lFyV2eBW2hPW2H-81">
          <mxGeometry relative="1" as="geometry">
            <mxPoint x="1460" y="1013" as="targetPoint" />
            <mxPoint x="1460" y="958" as="sourcePoint" />
            <Array as="points">
              <mxPoint x="1340" y="1038" />
              <mxPoint x="1340" y="928" />
            </Array>
          </mxGeometry>
        </mxCell>
        <mxCell id="0AmZF3lFyV2eBW2hPW2H-86" value="Settings Not OK" style="edgeLabel;html=1;align=center;verticalAlign=middle;resizable=0;points=[];" vertex="1" connectable="0" parent="0AmZF3lFyV2eBW2hPW2H-85">
          <mxGeometry x="-0.2248" relative="1" as="geometry">
            <mxPoint x="10" y="-25" as="offset" />
          </mxGeometry>
        </mxCell>
        <mxCell id="0AmZF3lFyV2eBW2hPW2H-87" value="" style="edgeStyle=orthogonalEdgeStyle;html=1;verticalAlign=bottom;endArrow=open;endSize=8;strokeColor=#ff0000;rounded=0;entryX=0.5;entryY=0;entryDx=0;entryDy=0;exitX=0.464;exitY=0.654;exitDx=0;exitDy=0;exitPerimeter=0;" edge="1" parent="1" target="0AmZF3lFyV2eBW2hPW2H-75">
          <mxGeometry relative="1" as="geometry">
            <mxPoint x="1904.1799999999998" y="808.82" as="targetPoint" />
            <mxPoint x="1904.62" y="743.36" as="sourcePoint" />
            <Array as="points">
              <mxPoint x="1905" y="780" />
              <mxPoint x="1904" y="780" />
            </Array>
          </mxGeometry>
        </mxCell>
        <mxCell id="0AmZF3lFyV2eBW2hPW2H-88" value="Pause the game" style="rounded=1;whiteSpace=wrap;html=1;arcSize=40;fontColor=#000000;fillColor=#ffffc0;strokeColor=#ff0000;" vertex="1" parent="1">
          <mxGeometry x="2350" y="1003" width="120" height="40" as="geometry" />
        </mxCell>
        <mxCell id="0AmZF3lFyV2eBW2hPW2H-89" value="" style="shape=line;html=1;strokeWidth=6;strokeColor=#ff0000;" vertex="1" parent="1">
          <mxGeometry x="2400" y="908" width="360" height="10" as="geometry" />
        </mxCell>
        <mxCell id="0AmZF3lFyV2eBW2hPW2H-90" value="" style="edgeStyle=orthogonalEdgeStyle;html=1;verticalAlign=bottom;endArrow=open;endSize=8;strokeColor=#ff0000;rounded=0;entryX=0.5;entryY=0;entryDx=0;entryDy=0;exitX=0.25;exitY=0.5;exitDx=0;exitDy=0;exitPerimeter=0;" edge="1" parent="1" source="0AmZF3lFyV2eBW2hPW2H-89" target="0AmZF3lFyV2eBW2hPW2H-88">
          <mxGeometry relative="1" as="geometry">
            <mxPoint x="2500" y="988" as="targetPoint" />
          </mxGeometry>
        </mxCell>
        <mxCell id="0AmZF3lFyV2eBW2hPW2H-91" value="Finish the Level" style="rounded=1;whiteSpace=wrap;html=1;arcSize=40;fontColor=#000000;fillColor=#ffffc0;strokeColor=#ff0000;" vertex="1" parent="1">
          <mxGeometry x="2520" y="1000" width="120" height="40" as="geometry" />
        </mxCell>
        <mxCell id="0AmZF3lFyV2eBW2hPW2H-92" value="Return to Home Page" style="rounded=1;whiteSpace=wrap;html=1;arcSize=40;fontColor=#000000;fillColor=#ffffc0;strokeColor=#ff0000;" vertex="1" parent="1">
          <mxGeometry x="2680" y="1000" width="120" height="40" as="geometry" />
        </mxCell>
        <mxCell id="0AmZF3lFyV2eBW2hPW2H-93" value="" style="edgeStyle=orthogonalEdgeStyle;html=1;verticalAlign=bottom;endArrow=open;endSize=8;strokeColor=#ff0000;rounded=0;entryX=0.5;entryY=0;entryDx=0;entryDy=0;exitX=0.5;exitY=0.813;exitDx=0;exitDy=0;exitPerimeter=0;" edge="1" parent="1" source="0AmZF3lFyV2eBW2hPW2H-89" target="0AmZF3lFyV2eBW2hPW2H-91">
          <mxGeometry relative="1" as="geometry">
            <mxPoint x="2420" y="1000" as="targetPoint" />
            <mxPoint x="2500" y="923" as="sourcePoint" />
          </mxGeometry>
        </mxCell>
        <mxCell id="0AmZF3lFyV2eBW2hPW2H-94" value="" style="edgeStyle=orthogonalEdgeStyle;html=1;verticalAlign=bottom;endArrow=open;endSize=8;strokeColor=#ff0000;rounded=0;exitX=0.75;exitY=0.5;exitDx=0;exitDy=0;exitPerimeter=0;" edge="1" parent="1" source="0AmZF3lFyV2eBW2hPW2H-89" target="0AmZF3lFyV2eBW2hPW2H-92">
          <mxGeometry relative="1" as="geometry">
            <mxPoint x="2590" y="1000" as="targetPoint" />
            <mxPoint x="2591" y="923" as="sourcePoint" />
          </mxGeometry>
        </mxCell>
        <mxCell id="0AmZF3lFyV2eBW2hPW2H-95" value="" style="edgeStyle=orthogonalEdgeStyle;html=1;verticalAlign=bottom;endArrow=open;endSize=8;strokeColor=#ff0000;rounded=0;entryX=0.5;entryY=0;entryDx=0;entryDy=0;exitX=0.265;exitY=0.724;exitDx=0;exitDy=0;exitPerimeter=0;" edge="1" parent="1" source="0AmZF3lFyV2eBW2hPW2H-72" target="0AmZF3lFyV2eBW2hPW2H-70">
          <mxGeometry relative="1" as="geometry">
            <mxPoint x="1749.69" y="808.64" as="targetPoint" />
            <mxPoint x="1750" y="750" as="sourcePoint" />
            <Array as="points" />
          </mxGeometry>
        </mxCell>
        <mxCell id="0AmZF3lFyV2eBW2hPW2H-96" value="" style="edgeStyle=orthogonalEdgeStyle;html=1;verticalAlign=bottom;endArrow=open;endSize=8;strokeColor=#ff0000;rounded=0;entryX=0;entryY=0.5;entryDx=0;entryDy=0;exitX=0;exitY=0.5;exitDx=0;exitDy=0;" edge="1" parent="1" source="0AmZF3lFyV2eBW2hPW2H-99" target="0AmZF3lFyV2eBW2hPW2H-65">
          <mxGeometry relative="1" as="geometry">
            <mxPoint x="2409.64" y="1144" as="targetPoint" />
            <mxPoint x="2409.64" y="1060" as="sourcePoint" />
            <Array as="points">
              <mxPoint x="2330" y="1135" />
              <mxPoint x="2330" y="860" />
            </Array>
          </mxGeometry>
        </mxCell>
        <mxCell id="0AmZF3lFyV2eBW2hPW2H-97" value="Yes" style="edgeLabel;html=1;align=center;verticalAlign=middle;resizable=0;points=[];" vertex="1" connectable="0" parent="0AmZF3lFyV2eBW2hPW2H-96">
          <mxGeometry x="-0.5175" y="3" relative="1" as="geometry">
            <mxPoint y="-1" as="offset" />
          </mxGeometry>
        </mxCell>
        <mxCell id="0AmZF3lFyV2eBW2hPW2H-98" value="" style="edgeStyle=orthogonalEdgeStyle;html=1;verticalAlign=bottom;endArrow=open;endSize=8;strokeColor=#ff0000;rounded=0;entryX=0.5;entryY=0;entryDx=0;entryDy=0;exitX=0.5;exitY=1;exitDx=0;exitDy=0;" edge="1" parent="1" source="0AmZF3lFyV2eBW2hPW2H-88" target="0AmZF3lFyV2eBW2hPW2H-99">
          <mxGeometry relative="1" as="geometry">
            <mxPoint x="2410" y="1253" as="targetPoint" />
            <mxPoint x="2410" y="1043" as="sourcePoint" />
          </mxGeometry>
        </mxCell>
        <mxCell id="0AmZF3lFyV2eBW2hPW2H-99" value="Continue the game" style="rhombus;whiteSpace=wrap;html=1;fontColor=#000000;fillColor=#ffffc0;strokeColor=#ff0000;" vertex="1" parent="1">
          <mxGeometry x="2359.71" y="1090" width="100.59" height="90" as="geometry" />
        </mxCell>
        <mxCell id="0AmZF3lFyV2eBW2hPW2H-100" value="" style="edgeStyle=orthogonalEdgeStyle;html=1;verticalAlign=bottom;endArrow=open;endSize=8;strokeColor=#ff0000;rounded=0;entryX=0.5;entryY=1;entryDx=0;entryDy=0;exitX=1;exitY=0.5;exitDx=0;exitDy=0;" edge="1" parent="1" source="0AmZF3lFyV2eBW2hPW2H-99" target="0AmZF3lFyV2eBW2hPW2H-92">
          <mxGeometry relative="1" as="geometry">
            <mxPoint x="2320" y="1077" as="targetPoint" />
            <mxPoint x="2320" y="1030" as="sourcePoint" />
          </mxGeometry>
        </mxCell>
        <mxCell id="0AmZF3lFyV2eBW2hPW2H-101" value="No" style="edgeLabel;html=1;align=center;verticalAlign=middle;resizable=0;points=[];" vertex="1" connectable="0" parent="0AmZF3lFyV2eBW2hPW2H-100">
          <mxGeometry x="0.3631" y="1" relative="1" as="geometry">
            <mxPoint as="offset" />
          </mxGeometry>
        </mxCell>
        <mxCell id="0AmZF3lFyV2eBW2hPW2H-102" value="" style="edgeStyle=orthogonalEdgeStyle;html=1;verticalAlign=bottom;endArrow=open;endSize=8;strokeColor=#ff0000;rounded=0;entryX=0;entryY=0.5;entryDx=0;entryDy=0;exitX=1;exitY=0.5;exitDx=0;exitDy=0;" edge="1" parent="1" source="0AmZF3lFyV2eBW2hPW2H-91" target="0AmZF3lFyV2eBW2hPW2H-92">
          <mxGeometry relative="1" as="geometry">
            <mxPoint x="2650" y="1134" as="targetPoint" />
            <mxPoint x="2650" y="1050" as="sourcePoint" />
          </mxGeometry>
        </mxCell>
        <mxCell id="0AmZF3lFyV2eBW2hPW2H-103" value="" style="edgeStyle=orthogonalEdgeStyle;html=1;verticalAlign=bottom;endArrow=open;endSize=8;strokeColor=#ff0000;rounded=0;exitX=1;exitY=0.5;exitDx=0;exitDy=0;entryX=1;entryY=0.5;entryDx=0;entryDy=0;" edge="1" parent="1" source="0AmZF3lFyV2eBW2hPW2H-92" target="0AmZF3lFyV2eBW2hPW2H-63">
          <mxGeometry relative="1" as="geometry">
            <mxPoint x="2453" y="940" as="targetPoint" />
            <mxPoint x="2383" y="853" as="sourcePoint" />
            <Array as="points">
              <mxPoint x="2860" y="1020" />
              <mxPoint x="2860" y="650" />
            </Array>
          </mxGeometry>
        </mxCell>
        <mxCell id="0AmZF3lFyV2eBW2hPW2H-104" value="" style="edgeStyle=orthogonalEdgeStyle;html=1;verticalAlign=bottom;endArrow=open;endSize=8;strokeColor=#ff0000;rounded=0;exitX=0.5;exitY=1;exitDx=0;exitDy=0;entryX=1;entryY=0.5;entryDx=0;entryDy=0;" edge="1" parent="1" source="0AmZF3lFyV2eBW2hPW2H-110" target="0AmZF3lFyV2eBW2hPW2H-106">
          <mxGeometry relative="1" as="geometry">
            <mxPoint x="1749.9949999999997" y="940" as="targetPoint" />
            <mxPoint x="1750" y="852" as="sourcePoint" />
          </mxGeometry>
        </mxCell>
        <mxCell id="0AmZF3lFyV2eBW2hPW2H-105" value="" style="edgeStyle=orthogonalEdgeStyle;html=1;verticalAlign=bottom;endArrow=open;endSize=8;strokeColor=#ff0000;rounded=0;entryX=0.5;entryY=0;entryDx=0;entryDy=0;exitX=0.5;exitY=1;exitDx=0;exitDy=0;" edge="1" parent="1" source="0AmZF3lFyV2eBW2hPW2H-68" target="0AmZF3lFyV2eBW2hPW2H-106">
          <mxGeometry relative="1" as="geometry">
            <mxPoint x="1599.3699999999997" y="1252.2800000000002" as="targetPoint" />
            <mxPoint x="1600" y="852" as="sourcePoint" />
          </mxGeometry>
        </mxCell>
        <mxCell id="0AmZF3lFyV2eBW2hPW2H-106" value="Return to Home Page" style="rounded=1;whiteSpace=wrap;html=1;arcSize=40;fontColor=#000000;fillColor=#ffffc0;strokeColor=#ff0000;" vertex="1" parent="1">
          <mxGeometry x="1540" y="1160" width="120" height="40" as="geometry" />
        </mxCell>
        <mxCell id="0AmZF3lFyV2eBW2hPW2H-107" value="Changes OK" style="edgeLabel;html=1;align=center;verticalAlign=middle;resizable=0;points=[];" vertex="1" connectable="0" parent="1">
          <mxGeometry x="1749.9971428571423" y="1151" as="geometry" />
        </mxCell>
        <mxCell id="0AmZF3lFyV2eBW2hPW2H-109" value="" style="edgeStyle=orthogonalEdgeStyle;html=1;verticalAlign=bottom;endArrow=open;endSize=8;strokeColor=#ff0000;rounded=0;entryX=0.5;entryY=0;entryDx=0;entryDy=0;exitX=0.5;exitY=1;exitDx=0;exitDy=0;" edge="1" parent="1" source="0AmZF3lFyV2eBW2hPW2H-70" target="0AmZF3lFyV2eBW2hPW2H-110">
          <mxGeometry relative="1" as="geometry">
            <mxPoint x="1750" y="1003" as="targetPoint" />
            <mxPoint x="1750" y="948" as="sourcePoint" />
            <Array as="points" />
          </mxGeometry>
        </mxCell>
        <mxCell id="0AmZF3lFyV2eBW2hPW2H-110" value="Confirm changes" style="rhombus;whiteSpace=wrap;html=1;fontColor=#000000;fillColor=#ffffc0;strokeColor=#ff0000;" vertex="1" parent="1">
          <mxGeometry x="1709.41" y="1003" width="81.18" height="70" as="geometry" />
        </mxCell>
        <mxCell id="0AmZF3lFyV2eBW2hPW2H-111" value="" style="edgeStyle=orthogonalEdgeStyle;html=1;verticalAlign=bottom;endArrow=open;endSize=8;strokeColor=#ff0000;rounded=0;entryX=0.25;entryY=1;entryDx=0;entryDy=0;exitX=0;exitY=0.5;exitDx=0;exitDy=0;" edge="1" parent="1" source="0AmZF3lFyV2eBW2hPW2H-110" target="0AmZF3lFyV2eBW2hPW2H-70">
          <mxGeometry relative="1" as="geometry">
            <mxPoint x="1690" y="928" as="targetPoint" />
            <mxPoint x="1760" y="958" as="sourcePoint" />
            <Array as="points">
              <mxPoint x="1640" y="1038" />
              <mxPoint x="1640" y="928" />
              <mxPoint x="1720" y="928" />
            </Array>
          </mxGeometry>
        </mxCell>
        <mxCell id="0AmZF3lFyV2eBW2hPW2H-112" value="Changes not OK" style="edgeLabel;html=1;align=center;verticalAlign=middle;resizable=0;points=[];" vertex="1" connectable="0" parent="0AmZF3lFyV2eBW2hPW2H-111">
          <mxGeometry x="-0.2248" relative="1" as="geometry">
            <mxPoint x="20" y="-22" as="offset" />
          </mxGeometry>
        </mxCell>
        <mxCell id="0AmZF3lFyV2eBW2hPW2H-115" value="" style="edgeStyle=orthogonalEdgeStyle;html=1;verticalAlign=bottom;endArrow=open;endSize=8;strokeColor=#ff0000;rounded=0;entryX=0.25;entryY=0;entryDx=0;entryDy=0;exitX=0.5;exitY=1;exitDx=0;exitDy=0;" edge="1" parent="1" source="0AmZF3lFyV2eBW2hPW2H-84" target="0AmZF3lFyV2eBW2hPW2H-106">
          <mxGeometry relative="1" as="geometry">
            <mxPoint x="1460" y="1013" as="targetPoint" />
            <mxPoint x="1460" y="958" as="sourcePoint" />
            <Array as="points" />
          </mxGeometry>
        </mxCell>
        <mxCell id="0AmZF3lFyV2eBW2hPW2H-116" value="&lt;div&gt;Settings OK&lt;/div&gt;" style="edgeLabel;html=1;align=center;verticalAlign=middle;resizable=0;points=[];" vertex="1" connectable="0" parent="0AmZF3lFyV2eBW2hPW2H-115">
          <mxGeometry x="-0.3253" y="4" relative="1" as="geometry">
            <mxPoint x="34" as="offset" />
          </mxGeometry>
        </mxCell>
        <mxCell id="0AmZF3lFyV2eBW2hPW2H-117" style="edgeStyle=orthogonalEdgeStyle;rounded=0;orthogonalLoop=1;jettySize=auto;html=1;exitX=0.5;exitY=1;exitDx=0;exitDy=0;" edge="1" parent="1">
          <mxGeometry relative="1" as="geometry">
            <mxPoint x="349.4100000000001" y="852" as="sourcePoint" />
            <mxPoint x="349.4100000000001" y="852" as="targetPoint" />
          </mxGeometry>
        </mxCell>
        <mxCell id="0AmZF3lFyV2eBW2hPW2H-118" value="" style="edgeStyle=orthogonalEdgeStyle;html=1;verticalAlign=bottom;endArrow=open;endSize=8;strokeColor=#ff0000;rounded=0;exitX=0.5;exitY=1;exitDx=0;exitDy=0;entryX=1;entryY=0.5;entryDx=0;entryDy=0;" edge="1" parent="1" source="0AmZF3lFyV2eBW2hPW2H-122" target="0AmZF3lFyV2eBW2hPW2H-61">
          <mxGeometry relative="1" as="geometry">
            <mxPoint x="409.4100000000001" y="1180" as="targetPoint" />
            <mxPoint x="499.4100000000001" y="852" as="sourcePoint" />
            <Array as="points">
              <mxPoint x="499" y="1180" />
            </Array>
          </mxGeometry>
        </mxCell>
        <mxCell id="0AmZF3lFyV2eBW2hPW2H-119" value="" style="edgeStyle=orthogonalEdgeStyle;html=1;verticalAlign=bottom;endArrow=open;endSize=8;strokeColor=#ff0000;rounded=0;entryX=0.5;entryY=0;entryDx=0;entryDy=0;exitX=0.5;exitY=1;exitDx=0;exitDy=0;" edge="1" parent="1" target="0AmZF3lFyV2eBW2hPW2H-61">
          <mxGeometry relative="1" as="geometry">
            <mxPoint x="349.4100000000001" y="1160" as="targetPoint" />
            <mxPoint x="349.4100000000001" y="852" as="sourcePoint" />
          </mxGeometry>
        </mxCell>
        <mxCell id="0AmZF3lFyV2eBW2hPW2H-120" value="Changes OK" style="edgeLabel;html=1;align=center;verticalAlign=middle;resizable=0;points=[];" vertex="1" connectable="0" parent="1">
          <mxGeometry x="499.4071428571424" y="1151" as="geometry" />
        </mxCell>
        <mxCell id="0AmZF3lFyV2eBW2hPW2H-121" value="" style="edgeStyle=orthogonalEdgeStyle;html=1;verticalAlign=bottom;endArrow=open;endSize=8;strokeColor=#ff0000;rounded=0;entryX=0.5;entryY=0;entryDx=0;entryDy=0;exitX=0.5;exitY=1;exitDx=0;exitDy=0;" edge="1" parent="1" target="0AmZF3lFyV2eBW2hPW2H-122">
          <mxGeometry relative="1" as="geometry">
            <mxPoint x="499.4100000000001" y="1003" as="targetPoint" />
            <mxPoint x="499.4100000000001" y="852" as="sourcePoint" />
            <Array as="points" />
          </mxGeometry>
        </mxCell>
        <mxCell id="0AmZF3lFyV2eBW2hPW2H-122" value="Confirm changes" style="rhombus;whiteSpace=wrap;html=1;fontColor=#000000;fillColor=#ffffc0;strokeColor=#ff0000;" vertex="1" parent="1">
          <mxGeometry x="458.82000000000016" y="1003" width="81.18" height="70" as="geometry" />
        </mxCell>
        <mxCell id="0AmZF3lFyV2eBW2hPW2H-123" value="" style="edgeStyle=orthogonalEdgeStyle;html=1;verticalAlign=bottom;endArrow=open;endSize=8;strokeColor=#ff0000;rounded=0;entryX=0.25;entryY=1;entryDx=0;entryDy=0;exitX=0;exitY=0.5;exitDx=0;exitDy=0;" edge="1" parent="1" source="0AmZF3lFyV2eBW2hPW2H-122">
          <mxGeometry relative="1" as="geometry">
            <mxPoint x="469.4100000000001" y="852" as="targetPoint" />
            <mxPoint x="509.4100000000001" y="958" as="sourcePoint" />
            <Array as="points">
              <mxPoint x="389.4100000000001" y="1038" />
              <mxPoint x="389.4100000000001" y="928" />
              <mxPoint x="469.4100000000001" y="928" />
            </Array>
          </mxGeometry>
        </mxCell>
        <mxCell id="0AmZF3lFyV2eBW2hPW2H-124" value="Change not Ok" style="edgeLabel;html=1;align=center;verticalAlign=middle;resizable=0;points=[];" vertex="1" connectable="0" parent="0AmZF3lFyV2eBW2hPW2H-123">
          <mxGeometry x="-0.2248" relative="1" as="geometry">
            <mxPoint x="20" y="-22" as="offset" />
          </mxGeometry>
        </mxCell>
        <mxCell id="0AmZF3lFyV2eBW2hPW2H-125" value="" style="edgeStyle=orthogonalEdgeStyle;html=1;verticalAlign=bottom;endArrow=open;endSize=8;strokeColor=#ff0000;rounded=0;entryX=0.25;entryY=0;entryDx=0;entryDy=0;exitX=0.5;exitY=1;exitDx=0;exitDy=0;" edge="1" parent="1" target="0AmZF3lFyV2eBW2hPW2H-61">
          <mxGeometry relative="1" as="geometry">
            <mxPoint x="319.4100000000001" y="1160" as="targetPoint" />
            <mxPoint x="199.41000000000008" y="1073" as="sourcePoint" />
            <Array as="points" />
          </mxGeometry>
        </mxCell>
        <mxCell id="0AmZF3lFyV2eBW2hPW2H-126" value="&lt;div&gt;Settings OK&lt;/div&gt;" style="edgeLabel;html=1;align=center;verticalAlign=middle;resizable=0;points=[];" vertex="1" connectable="0" parent="0AmZF3lFyV2eBW2hPW2H-125">
          <mxGeometry x="-0.3253" y="4" relative="1" as="geometry">
            <mxPoint x="34" as="offset" />
          </mxGeometry>
        </mxCell>
        <mxCell id="0AmZF3lFyV2eBW2hPW2H-127" value="User Management" style="rounded=1;whiteSpace=wrap;html=1;arcSize=40;fontColor=#000000;fillColor=#ffffc0;strokeColor=#ff0000;" vertex="1" parent="1">
          <mxGeometry x="2080" y="813" width="120" height="40" as="geometry" />
        </mxCell>
        <mxCell id="0AmZF3lFyV2eBW2hPW2H-128" value="" style="edgeStyle=orthogonalEdgeStyle;html=1;verticalAlign=bottom;endArrow=open;endSize=8;strokeColor=#ff0000;rounded=0;entryX=0.5;entryY=0;entryDx=0;entryDy=0;exitX=0.551;exitY=0.471;exitDx=0;exitDy=0;exitPerimeter=0;" edge="1" parent="1" source="0AmZF3lFyV2eBW2hPW2H-72" target="0AmZF3lFyV2eBW2hPW2H-127">
          <mxGeometry relative="1" as="geometry">
            <mxPoint x="2160" y="808.64" as="targetPoint" />
            <mxPoint x="2161" y="740" as="sourcePoint" />
            <Array as="points" />
          </mxGeometry>
        </mxCell>
        <mxCell id="0AmZF3lFyV2eBW2hPW2H-129" value="" style="shape=line;html=1;strokeWidth=6;strokeColor=#ff0000;" vertex="1" parent="1">
          <mxGeometry x="2000" y="918" width="270" height="10" as="geometry" />
        </mxCell>
        <mxCell id="0AmZF3lFyV2eBW2hPW2H-132" value="Create User" style="rounded=1;whiteSpace=wrap;html=1;arcSize=40;fontColor=#000000;fillColor=#ffffc0;strokeColor=#ff0000;" vertex="1" parent="1">
          <mxGeometry x="2000" y="988" width="120" height="40" as="geometry" />
        </mxCell>
        <mxCell id="0AmZF3lFyV2eBW2hPW2H-133" value="Ban User" style="rounded=1;whiteSpace=wrap;html=1;arcSize=40;fontColor=#000000;fillColor=#ffffc0;strokeColor=#ff0000;" vertex="1" parent="1">
          <mxGeometry x="2170" y="988" width="120" height="40" as="geometry" />
        </mxCell>
        <mxCell id="0AmZF3lFyV2eBW2hPW2H-134" value="" style="edgeStyle=orthogonalEdgeStyle;html=1;verticalAlign=bottom;endArrow=open;endSize=8;strokeColor=#ff0000;rounded=0;entryX=0.5;entryY=0;entryDx=0;entryDy=0;exitX=0.781;exitY=0.571;exitDx=0;exitDy=0;exitPerimeter=0;" edge="1" parent="1">
          <mxGeometry relative="1" as="geometry">
            <mxPoint x="2060" y="988" as="targetPoint" />
            <mxPoint x="2060" y="921" as="sourcePoint" />
            <Array as="points" />
          </mxGeometry>
        </mxCell>
        <mxCell id="0AmZF3lFyV2eBW2hPW2H-135" value="" style="edgeStyle=orthogonalEdgeStyle;html=1;verticalAlign=bottom;endArrow=open;endSize=8;strokeColor=#ff0000;rounded=0;entryX=0.5;entryY=0;entryDx=0;entryDy=0;exitX=0.781;exitY=0.571;exitDx=0;exitDy=0;exitPerimeter=0;" edge="1" parent="1">
          <mxGeometry relative="1" as="geometry">
            <mxPoint x="2229.71" y="988" as="targetPoint" />
            <mxPoint x="2229.71" y="921" as="sourcePoint" />
            <Array as="points" />
          </mxGeometry>
        </mxCell>
        <mxCell id="0AmZF3lFyV2eBW2hPW2H-136" value="" style="edgeStyle=orthogonalEdgeStyle;html=1;verticalAlign=bottom;endArrow=open;endSize=8;strokeColor=#ff0000;rounded=0;entryX=0.5;entryY=0;entryDx=0;entryDy=0;exitX=0.781;exitY=0.571;exitDx=0;exitDy=0;exitPerimeter=0;" edge="1" parent="1">
          <mxGeometry relative="1" as="geometry">
            <mxPoint x="2139.71" y="918" as="targetPoint" />
            <mxPoint x="2139.71" y="851" as="sourcePoint" />
            <Array as="points" />
          </mxGeometry>
        </mxCell>
        <mxCell id="0AmZF3lFyV2eBW2hPW2H-137" value="Confirm changes" style="rhombus;whiteSpace=wrap;html=1;fontColor=#000000;fillColor=#ffffc0;strokeColor=#ff0000;" vertex="1" parent="1">
          <mxGeometry x="2089.71" y="1100" width="100.59" height="90" as="geometry" />
        </mxCell>
        <mxCell id="0AmZF3lFyV2eBW2hPW2H-138" value="" style="edgeStyle=orthogonalEdgeStyle;html=1;verticalAlign=bottom;endArrow=open;endSize=8;strokeColor=#ff0000;rounded=0;entryX=0.5;entryY=0;entryDx=0;entryDy=0;exitX=0.5;exitY=1;exitDx=0;exitDy=0;" edge="1" parent="1" source="0AmZF3lFyV2eBW2hPW2H-132" target="0AmZF3lFyV2eBW2hPW2H-137">
          <mxGeometry relative="1" as="geometry">
            <mxPoint x="2070" y="998" as="targetPoint" />
            <mxPoint x="2070" y="931" as="sourcePoint" />
            <Array as="points" />
          </mxGeometry>
        </mxCell>
        <mxCell id="0AmZF3lFyV2eBW2hPW2H-139" value="" style="edgeStyle=orthogonalEdgeStyle;html=1;verticalAlign=bottom;endArrow=open;endSize=8;strokeColor=#ff0000;rounded=0;entryX=1;entryY=0.5;entryDx=0;entryDy=0;exitX=0.5;exitY=1;exitDx=0;exitDy=0;" edge="1" parent="1" source="0AmZF3lFyV2eBW2hPW2H-133" target="0AmZF3lFyV2eBW2hPW2H-137">
          <mxGeometry relative="1" as="geometry">
            <mxPoint x="2100" y="1155" as="targetPoint" />
            <mxPoint x="2070" y="1038" as="sourcePoint" />
            <Array as="points" />
          </mxGeometry>
        </mxCell>
        <mxCell id="0AmZF3lFyV2eBW2hPW2H-140" value="" style="edgeStyle=orthogonalEdgeStyle;html=1;verticalAlign=bottom;endArrow=open;endSize=8;strokeColor=#ff0000;rounded=0;exitX=0.5;exitY=1;exitDx=0;exitDy=0;entryX=0.75;entryY=1;entryDx=0;entryDy=0;" edge="1" parent="1" source="0AmZF3lFyV2eBW2hPW2H-137" target="0AmZF3lFyV2eBW2hPW2H-92">
          <mxGeometry relative="1" as="geometry">
            <mxPoint x="2310" y="1260" as="targetPoint" />
            <mxPoint x="2240" y="1038" as="sourcePoint" />
            <Array as="points">
              <mxPoint x="2140" y="1240" />
              <mxPoint x="2770" y="1240" />
            </Array>
          </mxGeometry>
        </mxCell>
        <mxCell id="0AmZF3lFyV2eBW2hPW2H-141" value="Changes OK" style="edgeLabel;html=1;align=center;verticalAlign=middle;resizable=0;points=[];" vertex="1" connectable="0" parent="0AmZF3lFyV2eBW2hPW2H-140">
          <mxGeometry x="0.0592" y="1" relative="1" as="geometry">
            <mxPoint as="offset" />
          </mxGeometry>
        </mxCell>
        <mxCell id="0AmZF3lFyV2eBW2hPW2H-142" value="" style="edgeStyle=orthogonalEdgeStyle;html=1;verticalAlign=bottom;endArrow=open;endSize=8;strokeColor=#ff0000;rounded=0;entryX=0;entryY=0.5;entryDx=0;entryDy=0;exitX=0;exitY=0.5;exitDx=0;exitDy=0;" edge="1" parent="1" source="0AmZF3lFyV2eBW2hPW2H-137" target="0AmZF3lFyV2eBW2hPW2H-127">
          <mxGeometry relative="1" as="geometry">
            <mxPoint x="2150" y="1110" as="targetPoint" />
            <mxPoint x="2070" y="1038" as="sourcePoint" />
            <Array as="points">
              <mxPoint x="1980" y="1145" />
              <mxPoint x="1980" y="833" />
            </Array>
          </mxGeometry>
        </mxCell>
        <mxCell id="0AmZF3lFyV2eBW2hPW2H-143" value="Changes not OK" style="edgeLabel;html=1;align=center;verticalAlign=middle;resizable=0;points=[];" vertex="1" connectable="0" parent="0AmZF3lFyV2eBW2hPW2H-142">
          <mxGeometry x="-0.3334" y="-2" relative="1" as="geometry">
            <mxPoint as="offset" />
          </mxGeometry>
        </mxCell>
      </root>
    </mxGraphModel>
  </diagram>
</mxfile>
